<svg width="25" height="25" viewBox="0 0 25 25" fill="none" xmlns="http://www.w3.org/2000/svg">
<g clip-path="url(#clip0_101_63)">
<path d="M21.8344 5.49519C21.3236 4.98419 20.7172 4.57883 20.0498 4.30227C19.3823 4.02571 18.6669 3.88336 17.9444 3.88336C17.2219 3.88336 16.5065 4.02571 15.839 4.30227C15.1716 4.57883 14.5652 4.98419 14.0544 5.49519L12.9944 6.55519L11.9344 5.49519C10.9027 4.4635 9.50344 3.8839 8.0444 3.8839C6.58537 3.8839 5.1861 4.4635 4.1544 5.49519C3.12271 6.52688 2.54311 7.92615 2.54311 9.38519C2.54311 10.8442 3.12271 12.2435 4.1544 13.2752L5.2144 14.3352L12.9944 22.1152L20.7744 14.3352L21.8344 13.2752C22.3454 12.7644 22.7508 12.158 23.0273 11.4905C23.3039 10.8231 23.4462 10.1077 23.4462 9.38519C23.4462 8.6627 23.3039 7.94729 23.0273 7.27983C22.7508 6.61237 22.3454 6.00594 21.8344 5.49519Z" fill="#E05D5D" stroke="#E05D5D" stroke-width="2" stroke-linecap="round" stroke-linejoin="round"/>
</g>
<defs>
<clipPath id="clip0_101_63">
<rect width="24" height="24" fill="white" transform="translate(0.994408 0.885193)"/>
</clipPath>
</defs>
</svg>
